<?xml version="1.0" standalone="no"?><!DOCTYPE svg PUBLIC "-//W3C//DTD SVG 1.1//EN" "http://www.w3.org/Graphics/SVG/1.1/DTD/svg11.dtd"><svg t="1762594974841" class="icon" viewBox="0 0 1024 1024" version="1.1" xmlns="http://www.w3.org/2000/svg" p-id="13926" xmlns:xlink="http://www.w3.org/1999/xlink" width="200" height="200"><path d="M965.443 383.186L530.995 155.715a40.96 40.96 0 0 0-38 0L58.557 383.185a40.95 40.95 0 0 0-21.78 32.754c-0.338 2.109-0.563 4.254-0.563 6.461v307.2a40.96 40.96 0 0 0 81.92 0V480.23L219.54 521.55a40.755 40.755 0 0 0-4.5 18.611v204.8c0 11.863 5.043 22.554 13.112 30.034C269.03 842.516 396.723 872.96 512 872.96s242.964-30.444 283.843-97.966a40.858 40.858 0 0 0 13.112-30.034v-204.8a40.694 40.694 0 0 0-4.506-18.611L961.9 457.4a40.96 40.96 0 0 0 3.544-74.214zM701.727 564.388L527.273 634.48a40.909 40.909 0 0 1-30.597-0.02l-173.701-70.094a40.873 40.873 0 0 1-6.661-3.486 39.834 39.834 0 0 1-2.304-1.582c-0.313-0.226-0.61-0.466-0.912-0.702a40.76 40.76 0 0 1-2.048-1.69c-0.333-0.296-0.64-0.609-0.962-0.921-0.63-0.6-1.265-1.198-1.849-1.838a42.865 42.865 0 0 1-2.268-2.673c-0.26-0.333-0.486-0.691-0.732-1.029a42.568 42.568 0 0 1-1.597-2.33c-0.195-0.317-0.374-0.634-0.558-0.952a39.936 39.936 0 0 1-1.475-2.724l-0.353-0.737a40.71 40.71 0 0 1-0.937-32.655 40.965 40.965 0 0 1 53.314-22.656l128.251 51.768 30.147 12.165 30.28-12.165 128.875-51.779a40.955 40.955 0 0 1 53.279 22.733 40.755 40.755 0 0 1 0.491 29.123 39.24 39.24 0 0 1-1.602 3.83v0.005a41.175 41.175 0 0 1-4.291 7.045c-0.174 0.23-0.363 0.45-0.543 0.676a37.94 37.94 0 0 1-4.649 4.96c-0.42 0.38-0.84 0.764-1.28 1.132-0.568 0.477-1.172 0.917-1.771 1.362-0.45 0.333-0.88 0.686-1.347 0.999l0.067-0.026a41.114 41.114 0 0 1-7.813 4.168z" p-id="13927"></path></svg>