<?xml version="1.0" standalone="no"?><!DOCTYPE svg PUBLIC "-//W3C//DTD SVG 1.1//EN" "http://www.w3.org/Graphics/SVG/1.1/DTD/svg11.dtd"><svg t="1762594940219" class="icon" viewBox="0 0 1024 1024" version="1.1" xmlns="http://www.w3.org/2000/svg" p-id="11802" xmlns:xlink="http://www.w3.org/1999/xlink" width="200" height="200"><path d="M746.666667 106.666667a192 192 0 0 1 192 192v373.333333a192 192 0 0 1-192 192h-107.925334l-97.749333 90.496a42.666667 42.666667 0 0 1-57.984 0L385.28 864H277.333333a192 192 0 0 1-192-192V298.666667a192 192 0 0 1 192-192h469.333334z m0 64H277.333333a128 128 0 0 0-128 128v373.333333a128 128 0 0 0 128 128h107.925334a64 64 0 0 1 43.477333 17.045333L512 894.122667l83.264-77.077334a64 64 0 0 1 43.477333-17.045333H746.666667a128 128 0 0 0 128-128V298.666667a128 128 0 0 0-128-128zM512 426.666667a54.677333 54.677333 0 0 1 54.634667 54.698666A54.677333 54.677333 0 0 1 512 536.064a54.677333 54.677333 0 0 1-54.634667-54.698667A54.677333 54.677333 0 0 1 512 426.666667z m-196.693333 0a54.677333 54.677333 0 0 1 54.634666 54.698666 54.677333 54.677333 0 0 1-54.613333 54.698667 54.677333 54.677333 0 0 1-54.634667-54.698667A54.677333 54.677333 0 0 1 315.306667 426.666667z m393.386666 0a54.677333 54.677333 0 0 1 54.613334 54.698666 54.677333 54.677333 0 0 1-54.613334 54.698667 54.677333 54.677333 0 0 1-54.634666-54.698667A54.677333 54.677333 0 0 1 708.672 426.666667z" fill="#000000" p-id="11803"></path></svg>