<?xml version="1.0" standalone="no"?><!DOCTYPE svg PUBLIC "-//W3C//DTD SVG 1.1//EN" "http://www.w3.org/Graphics/SVG/1.1/DTD/svg11.dtd"><svg t="1762960460140" class="icon" viewBox="0 0 1024 1024" version="1.1" xmlns="http://www.w3.org/2000/svg" p-id="6096" xmlns:xlink="http://www.w3.org/1999/xlink" width="256" height="256"><path d="M331.178667 224.426667A42.666667 42.666667 0 0 0 275.626667 159.573333L142.933333 273.408a42.666667 42.666667 0 0 0-2.133333 62.890667l132.437333 132.437333A42.666667 42.666667 0 0 0 333.568 408.32L273.664 348.458667h333.013333c107.605333 0 199.68 88.448 203.861334 196.010666 4.394667 113.621333-90.069333 211.669333-203.861334 211.669334H284.416a42.666667 42.666667 0 1 0 0 85.333333h322.261333c162.133333 0 295.424-138.24 289.109334-300.330667-5.973333-153.344-135.68-278.016-289.109334-278.016H285.994667l45.184-38.741333z" fill="#666666" p-id="6097"></path></svg>